<?xml version="1.0" standalone="no"?>
<!DOCTYPE svg PUBLIC "-//W3C//DTD SVG 20010904//EN"
 "http://www.w3.org/TR/2001/REC-SVG-20010904/DTD/svg10.dtd">
<svg version="1.0" xmlns="http://www.w3.org/2000/svg"
 width="975.000000pt" height="374.000000pt" viewBox="0 0 975.000000 374.000000"
 preserveAspectRatio="xMidYMid meet">

<g transform="translate(0.000000,374.000000) scale(0.100000,-0.100000)"
fill="#000000" stroke="none">
<path d="M2015 3426 c-25 -10 -72 -48 -130 -106 -49 -49 -397 -395 -772 -768
-693 -687 -713 -709 -713 -779 0 -79 24 -112 190 -267 47 -43 105 -98 130
-121 25 -23 106 -98 180 -166 74 -67 142 -130 150 -138 8 -9 35 -34 60 -55 25
-22 81 -73 126 -115 44 -42 150 -139 234 -216 85 -77 192 -176 238 -220 47
-44 99 -92 116 -107 17 -16 65 -59 107 -97 98 -89 129 -105 204 -105 101 0 -9
-101 1171 1071 265 263 487 489 494 503 24 45 29 100 14 151 -11 37 -32 65
-87 121 -40 40 -84 82 -99 93 -14 11 -105 94 -202 183 -97 90 -202 187 -233
215 -32 29 -98 90 -148 137 -50 47 -161 148 -245 225 -85 77 -195 179 -245
226 -49 47 -103 96 -120 110 -16 13 -70 63 -120 110 -49 47 -103 93 -119 103
-39 24 -131 30 -181 12z m119 -66 c14 -5 55 -35 90 -67 36 -32 78 -68 93 -81
15 -13 73 -66 128 -118 55 -52 109 -103 121 -112 11 -9 65 -60 120 -112 55
-52 122 -115 149 -139 28 -24 82 -73 120 -110 39 -36 86 -79 105 -95 19 -16
73 -65 120 -110 84 -80 272 -254 380 -350 30 -28 85 -81 123 -119 60 -61 67
-72 67 -108 0 -26 -8 -52 -21 -71 -12 -16 -138 -145 -281 -286 -143 -141 -470
-466 -726 -721 -257 -255 -485 -476 -506 -492 -50 -37 -109 -39 -154 -6 -55
40 -125 100 -217 188 -49 48 -108 101 -130 120 -22 18 -76 68 -120 110 -44 42
-100 94 -125 115 -24 22 -58 53 -75 69 -17 17 -83 77 -146 135 -63 58 -116
107 -119 110 -3 3 -88 81 -190 174 -170 156 -222 204 -398 369 -58 54 -62 60
-62 103 0 25 5 54 11 66 7 13 726 737 734 738 0 0 177 176 393 391 217 215
408 397 425 404 39 17 58 18 91 5z"/>
<path d="M1890 2851 c-139 -30 -281 -89 -375 -156 -307 -219 -474 -567 -437
-909 12 -112 65 -289 105 -350 12 -19 38 -60 57 -93 45 -75 193 -220 296 -289
45 -30 85 -54 89 -54 5 0 42 -13 84 -30 42 -16 112 -36 156 -45 44 -9 100 -26
125 -39 50 -25 120 -111 172 -209 55 -102 98 -118 196 -72 82 38 113 64 134
113 41 93 -6 208 -141 341 -88 87 -204 161 -252 161 -10 0 -28 4 -41 9 -13 5
-66 23 -120 40 -97 32 -119 41 -173 76 -302 193 -401 505 -255 800 64 128 141
210 275 291 213 130 509 107 725 -55 30 -23 57 -41 61 -41 13 0 117 -145 148
-206 17 -33 39 -98 48 -144 31 -154 -11 -329 -111 -467 -46 -62 -158 -154
-260 -212 -31 -18 -56 -35 -56 -37 0 -9 55 -53 66 -54 7 0 36 -28 65 -61 30
-34 59 -67 64 -73 6 -6 21 -28 35 -48 14 -21 29 -38 34 -38 30 0 278 204 336
278 93 118 161 273 196 442 13 66 15 113 11 210 -15 314 -149 550 -427 754
-85 63 -119 79 -247 121 -199 66 -410 82 -583 46z"/>
<path d="M1980 2393 c-133 -47 -203 -111 -252 -229 l-27 -69 -1 -282 c0 -233
2 -283 14 -290 8 -4 61 -6 118 -3 l103 5 5 283 5 283 41 39 c81 75 201 65 258
-22 15 -23 17 -57 16 -301 0 -243 1 -275 16 -281 8 -3 63 -6 120 -6 l105 0 -3
313 c-3 297 -4 314 -25 359 -43 93 -125 159 -242 197 -34 11 -223 14 -251 4z
m53 -30 c-7 -2 -19 -2 -25 0 -7 3 -2 5 12 5 14 0 19 -2 13 -5z"/>
<path d="M8364 2629 c-151 -25 -304 -100 -399 -194 -169 -169 -245 -396 -245
-730 0 -329 71 -555 220 -706 78 -79 163 -128 285 -165 82 -25 105 -27 260
-28 187 -1 245 9 364 64 l63 30 57 -52 c155 -143 485 -315 538 -282 38 24 42
160 6 195 -10 10 -71 44 -135 77 -65 32 -155 88 -201 122 l-84 64 53 72 c96
135 147 291 166 516 21 245 -14 472 -99 648 -38 78 -60 109 -127 176 -100 100
-203 155 -346 184 -101 21 -280 25 -376 9z m341 -218 c109 -30 220 -125 273
-234 65 -132 76 -196 76 -447 0 -250 -10 -312 -75 -448 -60 -125 -195 -233
-327 -261 -123 -26 -311 -7 -404 40 -121 62 -212 200 -251 376 -28 134 -30
408 -4 533 59 275 213 432 449 458 72 8 204 0 263 -17z"/>
<path d="M4545 2608 c-46 -26 -44 2 -45 -906 l0 -862 28 -11 c15 -6 60 -9 100
-7 59 3 77 7 89 23 13 18 14 113 11 757 l-5 738 69 -131 c120 -228 689 -1252
722 -1298 45 -63 87 -81 191 -81 82 0 88 1 116 29 l29 29 0 855 0 855 -30 12
c-38 16 -162 9 -184 -10 -16 -12 -17 -67 -14 -726 2 -392 0 -707 -3 -701 -178
345 -719 1327 -758 1377 -45 57 -82 70 -196 70 -56 0 -109 -6 -120 -12z"/>
<path d="M6680 2154 c-205 -44 -364 -195 -429 -406 -69 -226 -39 -541 67 -704
108 -165 270 -244 502 -244 192 0 337 55 450 169 117 118 176 268 187 477 20
387 -141 645 -444 709 -85 18 -247 18 -333 -1z m314 -203 c25 -10 66 -39 91
-62 91 -84 128 -200 128 -404 0 -141 -15 -220 -59 -307 -69 -136 -217 -205
-388 -178 -209 32 -306 186 -306 485 0 270 90 429 271 480 71 20 203 13 263
-14z"/>
</g>
</svg>
